<svg width="94" height="17" viewBox="0 0 94 17" fill="none" xmlns="http://www.w3.org/2000/svg">
<path d="M5.67 13.4364C4.698 13.4364 3.786 13.3044 2.934 13.0404C2.082 12.7764 1.362 12.4044 0.774 11.9244L1.548 10.2324C2.16 10.7004 2.802 11.0424 3.474 11.2584C4.158 11.4744 4.896 11.5824 5.688 11.5824C6.564 11.5824 7.236 11.4324 7.704 11.1324C8.184 10.8204 8.424 10.3884 8.424 9.83641C8.424 9.35641 8.202 8.99041 7.758 8.73841C7.326 8.48641 6.6 8.24641 5.58 8.01841C4.524 7.79041 3.666 7.52641 3.006 7.22641C2.346 6.92641 1.848 6.54241 1.512 6.07441C1.176 5.60641 1.008 5.01241 1.008 4.29241C1.008 3.54841 1.212 2.88241 1.62 2.29441C2.028 1.70641 2.604 1.25041 3.348 0.926413C4.092 0.590413 4.95 0.422413 5.922 0.422413C6.81 0.422413 7.656 0.560413 8.46 0.836413C9.264 1.10041 9.924 1.46641 10.44 1.93441L9.666 3.62641C8.538 2.72641 7.29 2.27641 5.922 2.27641C5.106 2.27641 4.458 2.44441 3.978 2.78041C3.51 3.10441 3.276 3.56041 3.276 4.14841C3.276 4.64041 3.486 5.01841 3.906 5.28241C4.326 5.54641 5.04 5.79241 6.048 6.02041C7.116 6.26041 7.98 6.53041 8.64 6.83041C9.312 7.11841 9.822 7.49041 10.17 7.94641C10.53 8.40241 10.71 8.97841 10.71 9.67441C10.71 10.4304 10.506 11.0964 10.098 11.6724C9.702 12.2364 9.12 12.6744 8.352 12.9864C7.596 13.2864 6.702 13.4364 5.67 13.4364ZM16.4285 4.25641C17.6645 4.25641 18.5825 4.55641 19.1825 5.15641C19.7825 5.75641 20.0825 6.68041 20.0825 7.92841V13.2744H17.9405V11.9244C17.7365 12.3924 17.4125 12.7584 16.9685 13.0224C16.5365 13.2864 16.0325 13.4184 15.4565 13.4184C14.8685 13.4184 14.3345 13.2984 13.8545 13.0584C13.3745 12.8184 12.9965 12.4884 12.7205 12.0684C12.4445 11.6484 12.3065 11.1804 12.3065 10.6644C12.3065 10.0164 12.4685 9.50641 12.7925 9.13441C13.1285 8.76241 13.6685 8.49241 14.4125 8.32441C15.1565 8.15641 16.1825 8.07241 17.4905 8.07241H17.9405V7.65841C17.9405 7.05841 17.8085 6.62641 17.5445 6.36241C17.2925 6.09841 16.8665 5.96641 16.2665 5.96641C15.7985 5.96641 15.3065 6.05041 14.7905 6.21841C14.2865 6.37441 13.7885 6.59641 13.2965 6.88441L12.6665 5.33641C13.1585 5.02441 13.7525 4.76641 14.4485 4.56241C15.1445 4.35841 15.8045 4.25641 16.4285 4.25641ZM15.9065 11.7984C16.5065 11.7984 16.9925 11.6004 17.3645 11.2044C17.7485 10.7964 17.9405 10.2744 17.9405 9.63841V9.26041H17.6165C16.8125 9.26041 16.1885 9.29641 15.7445 9.36841C15.3005 9.44041 14.9825 9.56641 14.7905 9.74641C14.5985 9.92641 14.5025 10.1724 14.5025 10.4844C14.5025 10.8684 14.6345 11.1864 14.8985 11.4384C15.1625 11.6784 15.4985 11.7984 15.9065 11.7984ZM28.1652 6.12841L26.8512 6.25441C25.3632 6.41041 24.6192 7.16641 24.6192 8.52241V13.2744H22.3692V4.47241H24.5112V6.02041C24.9672 4.96441 25.9092 4.38841 27.3372 4.29241L28.0212 4.23841L28.1652 6.12841ZM31.5098 12.8784C31.5098 14.1144 31.2218 15.0144 30.6458 15.5784C30.0698 16.1424 29.1098 16.4664 27.7658 16.5504L26.9198 16.6044L26.7578 14.9664L27.6398 14.8944C28.1918 14.8584 28.5998 14.7084 28.8638 14.4444C29.1278 14.1924 29.2598 13.8024 29.2598 13.2744V4.47241H31.5098V12.8784ZM31.5998 0.386414V2.60041H29.1158V0.386414H31.5998ZM37.6102 4.25641C38.8462 4.25641 39.7642 4.55641 40.3642 5.15641C40.9642 5.75641 41.2642 6.68041 41.2642 7.92841V13.2744H39.1222V11.9244C38.9182 12.3924 38.5942 12.7584 38.1502 13.0224C37.7182 13.2864 37.2142 13.4184 36.6382 13.4184C36.0502 13.4184 35.5162 13.2984 35.0362 13.0584C34.5562 12.8184 34.1782 12.4884 33.9022 12.0684C33.6262 11.6484 33.4882 11.1804 33.4882 10.6644C33.4882 10.0164 33.6502 9.50641 33.9742 9.13441C34.3102 8.76241 34.8502 8.49241 35.5942 8.32441C36.3382 8.15641 37.3642 8.07241 38.6722 8.07241H39.1222V7.65841C39.1222 7.05841 38.9902 6.62641 38.7262 6.36241C38.4742 6.09841 38.0482 5.96641 37.4482 5.96641C36.9802 5.96641 36.4882 6.05041 35.9722 6.21841C35.4682 6.37441 34.9702 6.59641 34.4782 6.88441L33.8482 5.33641C34.3402 5.02441 34.9342 4.76641 35.6302 4.56241C36.3262 4.35841 36.9862 4.25641 37.6102 4.25641ZM37.0882 11.7984C37.6882 11.7984 38.1742 11.6004 38.5462 11.2044C38.9302 10.7964 39.1222 10.2744 39.1222 9.63841V9.26041H38.7982C37.9942 9.26041 37.3702 9.29641 36.9262 9.36841C36.4822 9.44041 36.1642 9.56641 35.9722 9.74641C35.7802 9.92641 35.6842 10.1724 35.6842 10.4844C35.6842 10.8684 35.8162 11.1864 36.0802 11.4384C36.3442 11.6784 36.6802 11.7984 37.0882 11.7984ZM48.6629 4.25641C49.7189 4.25641 50.5049 4.55641 51.0209 5.15641C51.5369 5.75641 51.7949 6.66241 51.7949 7.87441V13.2744H49.5449V8.00041C49.5449 7.31641 49.4129 6.81841 49.1489 6.50641C48.8969 6.19441 48.4949 6.03841 47.9429 6.03841C47.2949 6.03841 46.7729 6.24241 46.3769 6.65041C45.9929 7.05841 45.8009 7.60441 45.8009 8.28841V13.2744H43.5509V4.47241H45.7469V5.78641C46.0469 5.29441 46.4489 4.91641 46.9529 4.65241C47.4569 4.38841 48.0269 4.25641 48.6629 4.25641ZM57.8602 4.25641C59.0962 4.25641 60.0142 4.55641 60.6142 5.15641C61.2142 5.75641 61.5142 6.68041 61.5142 7.92841V13.2744H59.3722V11.9244C59.1682 12.3924 58.8442 12.7584 58.4002 13.0224C57.9682 13.2864 57.4642 13.4184 56.8882 13.4184C56.3002 13.4184 55.7662 13.2984 55.2862 13.0584C54.8062 12.8184 54.4282 12.4884 54.1522 12.0684C53.8762 11.6484 53.7382 11.1804 53.7382 10.6644C53.7382 10.0164 53.9002 9.50641 54.2242 9.13441C54.5602 8.76241 55.1002 8.49241 55.8442 8.32441C56.5882 8.15641 57.6142 8.07241 58.9222 8.07241H59.3722V7.65841C59.3722 7.05841 59.2402 6.62641 58.9762 6.36241C58.7242 6.09841 58.2982 5.96641 57.6982 5.96641C57.2302 5.96641 56.7382 6.05041 56.2222 6.21841C55.7182 6.37441 55.2202 6.59641 54.7282 6.88441L54.0982 5.33641C54.5902 5.02441 55.1842 4.76641 55.8802 4.56241C56.5762 4.35841 57.2362 4.25641 57.8602 4.25641ZM57.3382 11.7984C57.9382 11.7984 58.4242 11.6004 58.7962 11.2044C59.1802 10.7964 59.3722 10.2744 59.3722 9.63841V9.26041H59.0482C58.2442 9.26041 57.6202 9.29641 57.1762 9.36841C56.7322 9.44041 56.4142 9.56641 56.2222 9.74641C56.0302 9.92641 55.9342 10.1724 55.9342 10.4844C55.9342 10.8684 56.0662 11.1864 56.3302 11.4384C56.5942 11.6784 56.9302 11.7984 57.3382 11.7984ZM68.3009 11.7264C68.5649 11.7264 68.8409 11.7084 69.1289 11.6724L69.0209 13.3464C68.6609 13.3824 68.3309 13.4004 68.0309 13.4004C66.7949 13.4004 65.8829 13.1184 65.2949 12.5544C64.7069 11.9784 64.4129 11.1264 64.4129 9.99841V6.16441H62.7209V4.47241H64.4129V1.84441H66.6629V4.47241H68.9849V6.16441H66.6629V9.96241C66.6629 11.1384 67.2089 11.7264 68.3009 11.7264ZM74.2254 4.25641C75.4614 4.25641 76.3794 4.55641 76.9794 5.15641C77.5794 5.75641 77.8794 6.68041 77.8794 7.92841V13.2744H75.7374V11.9244C75.5334 12.3924 75.2094 12.7584 74.7654 13.0224C74.3334 13.2864 73.8294 13.4184 73.2534 13.4184C72.6654 13.4184 72.1314 13.2984 71.6514 13.0584C71.1714 12.8184 70.7934 12.4884 70.5174 12.0684C70.2414 11.6484 70.1034 11.1804 70.1034 10.6644C70.1034 10.0164 70.2654 9.50641 70.5894 9.13441C70.9254 8.76241 71.4654 8.49241 72.2094 8.32441C72.9534 8.15641 73.9794 8.07241 75.2874 8.07241H75.7374V7.65841C75.7374 7.05841 75.6054 6.62641 75.3414 6.36241C75.0894 6.09841 74.6634 5.96641 74.0634 5.96641C73.5954 5.96641 73.1034 6.05041 72.5874 6.21841C72.0834 6.37441 71.5854 6.59641 71.0934 6.88441L70.4634 5.33641C70.9554 5.02441 71.5494 4.76641 72.2454 4.56241C72.9414 4.35841 73.6014 4.25641 74.2254 4.25641ZM73.7034 11.7984C74.3034 11.7984 74.7894 11.6004 75.1614 11.2044C75.5454 10.7964 75.7374 10.2744 75.7374 9.63841V9.26041H75.4134C74.6094 9.26041 73.9854 9.29641 73.5414 9.36841C73.0974 9.44041 72.7794 9.56641 72.5874 9.74641C72.3954 9.92641 72.2994 10.1724 72.2994 10.4844C72.2994 10.8684 72.4314 11.1864 72.6954 11.4384C72.9594 11.6784 73.2954 11.7984 73.7034 11.7984ZM85.2781 4.25641C86.3341 4.25641 87.1201 4.55641 87.6361 5.15641C88.1521 5.75641 88.4101 6.66241 88.4101 7.87441V13.2744H86.1601V8.00041C86.1601 7.31641 86.0281 6.81841 85.7641 6.50641C85.5121 6.19441 85.1101 6.03841 84.5581 6.03841C83.9101 6.03841 83.3881 6.24241 82.9921 6.65041C82.6081 7.05841 82.4161 7.60441 82.4161 8.28841V13.2744H80.1661V4.47241H82.3621V5.78641C82.6621 5.29441 83.0641 4.91641 83.5681 4.65241C84.0721 4.38841 84.6421 4.25641 85.2781 4.25641ZM90.6954 4.47241H92.9454V13.2744H90.6954V4.47241ZM93.0534 0.386414V2.60041H90.5694V0.386414H93.0534Z" fill="white"/>
</svg>
